<svg width="30" height="35" viewBox="0 0 30 35" fill="none" xmlns="http://www.w3.org/2000/svg">
<path d="M27.7705 10.5045L27.4862 11.0241C27.3783 11.2217 27.2159 11.3841 27.0183 11.492L26.499 11.7749C26.4751 11.7879 26.4552 11.8072 26.4413 11.8306C26.4274 11.854 26.4201 11.8807 26.4201 11.9079C26.4201 11.9352 26.4274 11.9619 26.4413 11.9853C26.4552 12.0087 26.4751 12.028 26.499 12.041L27.0183 12.325C27.2159 12.4329 27.3783 12.5953 27.4862 12.7929L27.7705 13.3122C27.7835 13.3361 27.8028 13.356 27.8262 13.3699C27.8496 13.3838 27.8763 13.3911 27.9035 13.3911C27.9308 13.3911 27.9575 13.3838 27.9809 13.3699C28.0043 13.356 28.0236 13.3361 28.0366 13.3122L28.3206 12.7929C28.4285 12.5953 28.5909 12.4329 28.7885 12.325L29.3081 12.041C29.332 12.028 29.3519 12.0087 29.3658 11.9853C29.3797 11.9619 29.387 11.9352 29.387 11.9079C29.387 11.8807 29.3797 11.854 29.3658 11.8306C29.3519 11.8072 29.332 11.7879 29.3081 11.7749L28.7885 11.4909C28.5909 11.383 28.4285 11.2206 28.3206 11.023L28.0366 10.5034C28.0235 10.4796 28.0041 10.4597 27.9807 10.4459C27.9572 10.4322 27.9304 10.4249 27.9032 10.4251C27.876 10.4252 27.8493 10.4326 27.826 10.4466C27.8026 10.4606 27.7834 10.4806 27.7705 10.5045Z" fill="#FC1266"/>
<path d="M2.14304 29.0319L1.69197 29.8575C1.52087 30.1704 1.26367 30.4276 0.950837 30.5987L0.125211 31.0497C0.0873137 31.0704 0.0556891 31.101 0.0336575 31.1381C0.0116259 31.1752 0 31.2176 0 31.2608C0 31.304 0.0116259 31.3464 0.0336575 31.3835C0.0556891 31.4207 0.0873137 31.4512 0.125211 31.4719L0.950837 31.9232C1.26371 32.0942 1.52094 32.3513 1.69197 32.6641L2.14304 33.4897C2.16378 33.5276 2.19434 33.5592 2.2315 33.5813C2.26866 33.6033 2.31107 33.6149 2.35426 33.6149C2.39746 33.6149 2.43986 33.6033 2.47702 33.5813C2.51419 33.5592 2.54474 33.5276 2.56548 33.4897L3.01655 32.6641C3.18765 32.3513 3.44487 32.0942 3.75769 31.9232L4.58331 31.4719C4.62121 31.4512 4.65284 31.4207 4.67487 31.3835C4.6969 31.3464 4.70852 31.304 4.70852 31.2608C4.70852 31.2176 4.6969 31.1752 4.67487 31.1381C4.65284 31.101 4.62121 31.0704 4.58331 31.0497L3.75769 30.5987C3.44492 30.4275 3.18772 30.1703 3.01655 29.8575L2.56548 29.0319C2.54474 28.994 2.51419 28.9624 2.47702 28.9404C2.43986 28.9184 2.39746 28.9067 2.35426 28.9067C2.31107 28.9067 2.26866 28.9184 2.2315 28.9404C2.19434 28.9624 2.16378 28.994 2.14304 29.0319Z" fill="#FC1266"/>
<path d="M24.534 5.3285L24.147 6.03606C24.0005 6.30437 23.7799 6.52493 23.5116 6.67152L22.804 7.05846C22.7715 7.07628 22.7444 7.1025 22.7256 7.13438C22.7067 7.16626 22.6967 7.20263 22.6967 7.23969C22.6967 7.27674 22.7067 7.31311 22.7256 7.34499C22.7444 7.37687 22.7715 7.4031 22.804 7.42091L23.5116 7.80785C23.7799 7.95444 24.0005 8.175 24.147 8.44331L24.534 9.15087C24.5518 9.18336 24.578 9.21046 24.6099 9.22934C24.6418 9.24822 24.6782 9.25818 24.7152 9.25818C24.7523 9.25818 24.7886 9.24822 24.8205 9.22934C24.8524 9.21046 24.8786 9.18336 24.8964 9.15087L25.2831 8.44331C25.4299 8.17508 25.6505 7.95455 25.9188 7.80785L26.6264 7.42091C26.6589 7.4031 26.686 7.37687 26.7049 7.34499C26.7237 7.31311 26.7337 7.27674 26.7337 7.23969C26.7337 7.20263 26.7237 7.16626 26.7049 7.13438C26.686 7.1025 26.6589 7.07628 26.6264 7.05846L25.9188 6.67152C25.6505 6.52482 25.4299 6.30429 25.2831 6.03606L24.8964 5.3285C24.8786 5.29601 24.8524 5.26891 24.8205 5.25003C24.7886 5.23115 24.7523 5.22119 24.7152 5.22119C24.6782 5.22119 24.6418 5.23115 24.6099 5.25003C24.578 5.26891 24.5518 5.29601 24.534 5.3285Z" fill="#FC1266"/>
<path d="M18.4282 8.82896C18.1449 8.2899 17.7342 7.82819 17.2318 7.48392C16.7295 7.13965 16.1507 6.92325 15.5457 6.85352V0.412813C15.5457 0.303328 15.5022 0.198327 15.4248 0.12091C15.3474 0.0434926 15.2424 0 15.1329 0C15.0234 0 14.9184 0.0434926 14.841 0.12091C14.7636 0.198327 14.7201 0.303328 14.7201 0.412813V6.85021C14.1105 6.91722 13.5268 7.13297 13.0202 7.47848C12.5135 7.824 12.0996 8.2887 11.8147 8.83172C8.70976 9.63881 6.00562 11.5503 4.20886 14.208C2.4121 16.8658 1.64601 20.0875 2.0541 23.2695C2.46219 26.4516 4.01646 29.3756 6.42574 31.494C8.83502 33.6123 11.934 34.7796 15.1421 34.777C18.3502 34.7745 21.4473 33.6024 23.8533 31.4802C26.2592 29.3581 27.8088 26.4315 28.2119 23.2488C28.615 20.0661 27.8438 16.8457 26.0428 14.1908C24.2419 11.5359 21.5347 9.62867 18.4285 8.82649L18.4282 8.82896ZM21.2012 12.8239C20.1744 12.5825 19.1336 12.4053 18.0848 12.2936C17.8204 11.2904 17.3927 10.3375 16.8188 9.47323C18.5089 9.95649 20.0217 11.1498 21.2012 12.8239ZM2.85087 23.1178C2.7252 22.1096 2.7252 21.0896 2.85087 20.0814C3.81317 19.7108 4.80593 19.4248 5.81789 19.2266C5.60653 20.8016 5.60653 22.3978 5.81789 23.9729C4.80598 23.7743 3.81323 23.4882 2.85087 23.1178ZM8.40568 13.8378C9.56174 13.5211 10.74 13.292 11.9305 13.1525C11.5745 14.646 11.3295 16.1638 11.1974 17.6934C9.63311 17.8035 8.15496 17.9755 6.818 18.2034C7.11393 16.6736 7.64977 15.2002 8.40568 13.8378ZM6.81882 24.998C8.15579 25.2256 9.63421 25.3984 11.1982 25.5074C11.3305 27.0371 11.5757 28.5549 11.9319 30.0484C10.7421 29.9079 9.56451 29.6779 8.40925 29.3603C7.65271 27.999 7.11596 26.5268 6.81882 24.998ZM9.05434 30.3781C10.079 30.6182 11.1176 30.7941 12.1642 30.9048C12.4288 31.908 12.8565 32.8609 13.4302 33.7254C11.7407 33.2427 10.2325 32.0483 9.05434 30.3781ZM15.1238 24.8169C14.0455 24.8169 12.9851 24.7853 11.9561 24.7278C11.8843 23.7411 11.8447 22.6959 11.8447 21.5997C11.8447 20.5036 11.8843 19.4581 11.9561 18.4717C12.9851 18.4142 14.0455 18.3825 15.1238 18.3825C16.2021 18.3825 17.2624 18.4142 18.2914 18.4717C18.3633 19.4581 18.4029 20.5033 18.4029 21.5997C18.4029 22.6962 18.3633 23.7411 18.2914 24.7278C17.2624 24.7853 16.2021 24.8169 15.1238 24.8169ZM21.837 29.3623C20.6821 29.679 19.505 29.9082 18.3157 30.0478C18.6719 28.5543 18.9171 27.0365 19.0494 25.5069C20.6136 25.3968 22.0918 25.2245 23.4285 24.9969C23.1317 26.5269 22.5945 28.0003 21.837 29.3623ZM22.9392 14.1708C23.9439 14.5054 24.9163 14.9304 25.8443 15.4406C26.5081 16.5905 26.9808 17.8405 27.244 19.1418C26.2808 18.81 25.2949 18.5484 24.294 18.3589C24.0369 16.9078 23.581 15.499 22.9392 14.1724V14.1708ZM24.4291 23.9712C24.6405 22.3961 24.6405 20.7998 24.4291 19.2247C25.4411 19.4233 26.434 19.7094 27.3964 20.0798C27.5219 21.088 27.5219 22.1079 27.3964 23.1161C26.434 23.4871 25.4412 23.7737 24.4291 23.9729V23.9712Z" fill="#FC1266"/>
</svg>
