<svg width="29" height="35" viewBox="0 0 29 35" fill="none" xmlns="http://www.w3.org/2000/svg">
<path d="M6.99847 0C3.14714 0 0 3.14782 0 7C0 10.8522 3.14714 14 6.99847 14C7.12188 14 7.24077 14.0071 7.36298 14L10.8987 34.0399C10.9473 34.3102 11.0897 34.5547 11.3009 34.7303C11.512 34.906 11.7783 35.0014 12.0529 35H22.9394C23.214 35.0014 23.4804 34.906 23.6915 34.7303C23.9026 34.5547 24.0451 34.3102 24.0937 34.0399L28.7593 7.59548C28.7896 7.42696 28.7825 7.25381 28.7384 7.08837C28.6943 6.92292 28.6143 6.76921 28.5041 6.63814C28.394 6.50708 28.2563 6.40189 28.1009 6.33C27.9456 6.25812 27.7763 6.22132 27.6051 6.22222H13.9483C13.5544 2.73764 10.5837 0 6.99847 0ZM5.83206 2.49132V4.18055L4.6292 2.97743C4.99919 2.76095 5.40487 2.59981 5.83206 2.49132ZM8.16489 2.49132C8.59208 2.59981 8.99776 2.76095 9.36775 2.97743L8.16489 4.18055V2.49132ZM2.97678 4.61805L4.19179 5.83333H2.49078C2.60132 5.40297 2.75672 4.98998 2.97678 4.61805ZM11.0202 4.61805C11.3058 5.10073 11.4946 5.6457 11.5912 6.22222H9.41635L11.0202 4.61805ZM2.47863 8.16666H3.98524L2.94033 9.32118C2.73756 8.9644 2.58225 8.57541 2.47863 8.16666ZM8.78454 8.55555H26.2078L25.9284 10.1111H9.06399L8.78454 8.55555ZM5.83206 9.60069V11.5208C5.38439 11.4071 4.96498 11.2301 4.5806 10.9983L5.83206 9.60069ZM9.46495 12.4444H25.5274L21.9553 32.6666H13.0371L9.46495 12.4444Z" fill="#FC1266"/>
</svg>
