<svg width="15" height="17" viewBox="0 0 15 17" fill="none" xmlns="http://www.w3.org/2000/svg">
<path d="M13.0417 16.4166H1.95833C1.08388 16.4166 0.375 15.7077 0.375 14.8333V3.74992C0.375 2.87547 1.08388 2.16659 1.95833 2.16659H3.54167V0.583252H5.125V2.16659H9.875V0.583252H11.4583V2.16659H13.0417C13.9161 2.16659 14.625 2.87547 14.625 3.74992V14.8333C14.625 15.7077 13.9161 16.4166 13.0417 16.4166ZM1.95833 6.91659V14.8333H13.0417V6.91659H1.95833ZM1.95833 3.74992V5.33325H13.0417V3.74992H1.95833ZM11.4583 13.2499H9.875V11.6666H11.4583V13.2499ZM8.29167 13.2499H6.70833V11.6666H8.29167V13.2499ZM5.125 13.2499H3.54167V11.6666H5.125V13.2499ZM11.4583 10.0833H9.875V8.49992H11.4583V10.0833ZM8.29167 10.0833H6.70833V8.49992H8.29167V10.0833ZM5.125 10.0833H3.54167V8.49992H5.125V10.0833Z" fill="#FC1267"/>
</svg>
