<svg width="26" height="24" viewBox="0 0 26 24" fill="none" xmlns="http://www.w3.org/2000/svg">
<path d="M12.5214 0C11.5884 0 10.6552 0.327066 9.91928 0.979889L2.18146 7.84639C0.794152 9.07704 5.00855e-07 10.8417 0 12.6876V20.4055C0 22.3727 1.63102 24 3.61457 24H8.76252V17.7932C8.76252 15.7504 10.4665 14.0604 12.5263 14.0604C14.5861 14.0604 16.2778 15.7504 16.2778 17.7932V24H21.4258C23.4093 24 25.0403 22.3727 25.0403 20.4055V12.6876C25.0403 10.8417 24.2462 9.07704 22.8589 7.84639L15.1235 0.979889C14.3876 0.327066 13.4544 0 12.5214 0Z" fill="#FC1267"/>
</svg>
