<svg width="19" height="27" viewBox="0 0 19 27" fill="none" xmlns="http://www.w3.org/2000/svg">
<path d="M9.49729 0C4.26079 0 0 4.24439 0 9.46081C0 14.5098 8.68959 26.2818 9.06363 26.7786C9.16663 26.919 9.32382 27 9.49729 27C9.67076 27 9.83338 26.919 9.93637 26.7786C10.305 26.2818 19 14.5098 19 9.46081C19 4.24439 14.7392 0 9.49729 0ZM9.49729 14.04C6.96577 14.04 4.90587 11.988 4.90587 9.46081C4.90587 6.93899 6.96577 4.88703 9.49729 4.88703C12.0288 4.88703 14.0941 6.93899 14.0941 9.46081C14.0941 11.988 12.0288 14.04 9.49729 14.04Z" fill="#2E3A59"/>
</svg>
