<svg width="24" height="24" viewBox="0 0 24 24" fill="none" xmlns="http://www.w3.org/2000/svg">
<path d="M18.0591 6.43902C18.0591 2.89756 15.1754 0 11.651 0C8.12655 0 5.24292 2.89756 5.24292 6.43902C5.24292 9.98049 8.12655 12.878 11.651 12.878C15.1754 12.878 18.0591 9.98049 18.0591 6.43902Z" fill="#2E3A59"/>
<path d="M14.1851 14.2243C13.3696 14.4877 12.5249 14.6341 11.651 14.6341C10.7772 14.6341 9.9325 14.4877 9.11693 14.2243C6.55371 13.3755 3.6992 14.078 2.0098 16.156C0.757317 17.7072 0 19.6975 0 21.8341C0 23.0341 0.96121 23.9999 2.15544 23.9999H21.1466C22.3409 23.9999 23.3021 23.0341 23.3021 21.8341C23.3021 19.6975 22.5447 17.7072 21.2923 16.156C19.5737 14.078 16.7484 13.3755 14.1851 14.2243Z" fill="#2E3A59"/>
</svg>
