<svg width="25" height="33" viewBox="0 0 25 33" fill="none" xmlns="http://www.w3.org/2000/svg">
<path d="M24.9041 3.81491C25.0767 3.53868 25.0077 3.15884 24.766 2.91713C24.4207 2.60637 23.9027 2.70995 23.661 3.08978C23.661 3.08978 20.5534 8.23469 19.6556 9.68493C19.5175 9.89211 19.2412 9.96117 19.0341 9.85758C18.8269 9.71946 18.7233 9.44323 18.8614 9.23605C19.6901 7.71675 22.5561 2.46825 22.5561 2.46825C22.7633 2.08843 22.5906 1.60501 22.1417 1.43237C21.831 1.32878 21.4857 1.4669 21.313 1.74314L17.3076 8.33827C17.1695 8.54545 16.8932 8.61451 16.6861 8.51092C16.4789 8.3728 16.3753 8.09657 16.5134 7.88939C17.3421 6.37009 20.2081 1.12161 20.2081 1.12161C20.4153 0.741788 20.2426 0.258375 19.7937 0.085727C19.483 -0.0178615 19.1376 0.120244 18.965 0.39648L14.7179 7.37145L14.1999 8.30375C13.6475 9.23605 13.4748 10.341 13.7165 11.2042L14.2345 13.0688L12.9223 15.0025L8.77879 8.78715L3.28861 0.39648C3.04691 0.0166553 2.49442 -0.121459 2.1146 0.120248C0.940596 0.810839 0.457195 2.22655 0.940608 3.46962L4.9115 13.6213C5.56756 15.2442 7.5012 15.9348 9.0205 15.0715L9.53845 14.7953L11.0578 17.8684L3.59936 28.8834C2.83972 30.0574 3.18503 31.6112 4.39356 32.3017L4.60073 32.4399C5.80926 33.1305 7.36309 32.6816 7.9501 31.404L12.8188 21.425L17.8255 31.4731C18.4471 32.7161 19.9664 33.1995 21.1749 32.509L21.3821 32.3708C22.5906 31.6802 22.9704 30.0919 22.1763 28.9524L14.6488 17.6612L16.2717 14.3119L18.1363 13.8285C19.0341 13.5868 19.8628 12.8962 20.4152 11.9639L20.9332 11.0316L24.9041 3.81491Z" fill="#FC1267"/>
</svg>
