<svg width="22" height="22" viewBox="0 0 22 22" fill="none" xmlns="http://www.w3.org/2000/svg">
<path d="M11.0667 21.7141C10.4697 21.7158 9.89676 21.4784 9.47596 21.0548L0.659335 12.2405C0.194117 11.7768 -0.0443827 11.1324 0.00683507 10.4776L0.569335 3.09083C0.649681 1.97897 1.53618 1.09583 2.64834 1.0197L10.0351 0.457202C10.0936 0.444826 10.151 0.444826 10.2095 0.444826C10.8053 0.444112 11.3768 0.681446 11.7968 1.10408L20.6135 9.91733C21.0356 10.3393 21.2728 10.9117 21.2728 11.5086C21.2728 12.1055 21.0356 12.678 20.6135 13.1L12.6575 21.0548C12.2365 21.4782 11.6637 21.7156 11.0667 21.7141ZM6.29333 4.48583C5.27501 4.48612 4.38383 5.17032 4.12051 6.15401C3.85718 7.1377 4.28737 8.17562 5.16936 8.68461C6.05136 9.19359 7.16525 9.04675 7.88521 8.32658L7.89309 8.31983L7.90096 8.31195L7.89196 8.31983C8.53145 7.6747 8.7203 6.70833 8.37072 5.86992C8.02114 5.03152 7.2017 4.48555 6.29333 4.48583Z" fill="#2E3A59" />
</svg>
